<svg width="615" height="232" fill="none" xmlns="http://www.w3.org/2000/svg"><g clip-path="url(#prefix__clip0_1_16)" fill="#000"><path d="M129.6 69.1c-18-.5-43.2.5-61.5.5v93.6h26.2V92.4s23.3-.8 31.7.2c7.9.9 10.8 5.8 11.1 16 .2 11.6 0 17.7 0 54.6h26.2s.3-42.2 0-56.9c-.4-26.1-9.5-36.6-33.7-37.2zM250.8 68.8c-25.9 0-47 21.2-47 47.3 0 26.1 21.1 47.3 47 47.3s47-21.2 47-47.3c0-26.1-21.1-47.3-47-47.3zm0 72c-13.6 0-24.6-11.1-24.6-24.8 0-13.7 11-24.8 24.6-24.8 13.6 0 24.6 11.1 24.6 24.8 0 13.8-11 24.8-24.6 24.8zM545.4 116.1c0-26.1-21.1-47.3-47-47.3s-47 21.2-47 47.3c0 15.3 7 28.4 17.9 37.1 7.6 6 18.2 10.2 32.4 10.2 6.9 0 24.8-1.9 37.7-16.2L528.8 133c-4.5 4-15.8 9.6-24.8 9.6-11.4 0-18.3-2.2-23.3-6.9-3.1-2.8-5.3-7.1-6.3-12.4h70.3c.4-2.4.7-4.7.7-7.2zm-70.8-8.6c2.6-11.1 10.4-19.3 23.7-19.3 13.9 0 21.2 8.8 23.6 19.3h-47.3zM386.8 60.1h-24.5v26.3h-25.2v23h25.2v27.3h24.5v-27.3H412v-23h-25.2V60.1z"/></g><defs><clipPath id="prefix__clip0_1_16"><path fill="#fff" d="M0 0h614.1v231.6H0z"/></clipPath></defs></svg>