<svg id="prefix__a" xmlns="http://www.w3.org/2000/svg" viewBox="0 0 583.2 215.8"><defs><style>.prefix__g{fill:#fff}</style></defs><g id="prefix__b"><path d="M0 0h583.2v215.8H0z" id="prefix__c"/></g><g id="prefix__d"><g id="prefix__e"><g id="prefix__f"><path class="prefix__g" d="M209.3 139.9c-5 2.6-10.1 3.6-16.2 3.6-14.9 0-27.6-10.9-27.6-28.4s13-34.9 33.2-34.9 26.5 11.1 26.5 26.3-7.6 21.7-16.2 21.7-7-2.5-6.7-8h-.4c-3.2 5.4-7.4 8-12.8 8s-9.8-4.3-9.8-11.5c0-11.3 8.9-21.6 21.6-21.6s7.4.8 9.7 1.9l-3.1 16.5c-1.4 6.9-.3 10.1 2.7 10.2 4.6 0 9.8-6.1 9.8-16.7s-7.9-22.7-22-22.7-27.3 11.7-27.3 30.2 9.9 24.6 23.4 24.6 10-1.1 13.7-3.2l1.5 3.9zm-5-39.3c-.9-.3-2.5-.6-4.5-.6-8 0-14.5 7.6-14.5 16.4s2 6.9 6 6.9 10.1-6.7 11.1-12.4l1.9-10.3zM241 86.1c0 2.7-1.9 4.9-5.1 4.9s-4.8-2.2-4.8-4.9 2.1-5 5-5 4.9 2.2 4.9 5zm-8.9 56.4v-44h8v44h-8zM258.6 118.7h.2c1.1-1.5 2.6-3.5 3.9-5l12.9-15.2h9.6l-17 18.1 19.4 25.9h-9.7l-15.2-21.1-4.1 4.5v16.6h-7.9V77.9h7.9v40.8zM303.6 85.9v12.6h11.5v6.1h-11.5v23.7c0 5.5 1.5 8.6 6 8.6s3.6-.3 4.6-.5l.4 6c-1.5.6-4 1.1-7.1 1.1s-6.7-1.2-8.6-3.4c-2.3-2.4-3.1-6.3-3.1-11.5v-24H289v-6.1h6.8V87.9l7.8-2.1zM346.8 142.5l-.6-5.6h-.3c-2.5 3.5-7.2 6.6-13.5 6.6-8.9 0-13.5-6.3-13.5-12.6 0-10.6 9.5-16.5 26.5-16.4v-.9c0-3.6-1-10.2-10-10.2s-8.4 1.3-11.5 3.3l-1.8-5.3c3.6-2.4 8.9-3.9 14.5-3.9 13.5 0 16.7 9.2 16.7 18V132c0 3.8.2 7.6.7 10.6h-7.3zm-1.2-22.4c-8.7-.2-18.7 1.4-18.7 9.9s3.5 7.6 7.6 7.6 9.4-3.6 10.6-7.4c.3-.8.5-1.7.5-2.5v-7.6zM363.6 77.9h8v27.5h.2c1.3-2.3 3.3-4.3 5.7-5.6 2.4-1.4 5.2-2.3 8.2-2.3 5.9 0 15.4 3.6 15.4 18.8v26.2h-8v-25.3c0-7.1-2.6-13.1-10.2-13.1s-9.3 3.6-10.7 8c-.5 1.1-.5 2.3-.5 3.8v26.6h-8V77.9zM436 142.5l-.6-5.6h-.3c-2.5 3.5-7.2 6.6-13.5 6.6-8.9 0-13.5-6.3-13.5-12.6 0-10.6 9.5-16.5 26.5-16.4v-.9c0-3.6-1-10.2-10-10.2s-8.4 1.3-11.5 3.3l-1.8-5.3c3.6-2.4 8.9-3.9 14.5-3.9 13.5 0 16.7 9.2 16.7 18V132c0 3.8.2 7.6.7 10.6h-7.3zm-1.2-22.4c-8.7-.2-18.7 1.4-18.7 9.9s3.5 7.6 7.6 7.6 9.4-3.6 10.6-7.4c.3-.8.5-1.7.5-2.5v-7.6zM452.9 110.4c0-4.5 0-8.3-.4-11.9h7.1l.5 7.3h.2c2.2-4.2 7.3-8.3 14.6-8.3s15.6 3.6 15.6 18.7v26.3h-8v-25.4c0-7.1-2.6-13-10.2-13s-9.4 3.7-10.7 8.2c-.4 1-.5 2.4-.5 3.7v26.5h-8v-32.1zM525.2 142.5l-.6-5.6h-.3c-2.5 3.5-7.2 6.6-13.5 6.6-8.9 0-13.5-6.3-13.5-12.6 0-10.6 9.5-16.5 26.5-16.4v-.9c0-3.6-1-10.2-10-10.2s-8.4 1.3-11.5 3.3l-1.8-5.3c3.6-2.4 8.9-3.9 14.5-3.9 13.5 0 16.7 9.2 16.7 18V132c0 3.8.2 7.6.7 10.6h-7.3zm-1.2-22.4c-8.7-.2-18.7 1.4-18.7 9.9s3.5 7.6 7.6 7.6 9.4-3.6 10.6-7.4c.3-.8.5-1.7.5-2.5v-7.6z"/></g><path class="prefix__g" d="M95 105.3l25.8-29.9h-6.1l-22.4 26-17.9-26H53.8l27 39.3-27 31.4h6.1l23.6-27.5 18.9 27.5H123l-28-40.8zm-8.4 9.7l-2.7-3.9-21.8-31.2h9.4L89.1 105l2.7 3.9 22.8 32.7h-9.4l-18.6-26.7z"/></g></g></svg>